<svg xmlns="http://www.w3.org/2000/svg" width="68" height="112" fill="none"><path fill="#000" d="M17.625 108V96.364h4.262c.825 0 1.509.136 2.05.409.542.269.948.634 1.216 1.096.27.459.404.976.404 1.552 0 .484-.09.893-.267 1.227a2.205 2.205 0 0 1-.716.795 3.157 3.157 0 0 1-.977.432v.114a2.32 2.32 0 0 1 1.13.375c.372.227.678.551.92.971.243.421.365.932.365 1.534 0 .595-.14 1.129-.421 1.603-.277.469-.704.842-1.284 1.119-.58.273-1.32.409-2.222.409h-4.46Zm1.756-1.506h2.534c.84 0 1.443-.163 1.807-.488.363-.326.545-.733.545-1.222 0-.367-.093-.704-.278-1.011a1.989 1.989 0 0 0-.796-.733c-.34-.182-.746-.273-1.216-.273h-2.596v3.727Zm0-5.096h2.352a2.41 2.41 0 0 0 1.063-.228c.318-.151.57-.363.755-.636.19-.276.284-.602.284-.977 0-.481-.168-.885-.505-1.21-.337-.326-.854-.489-1.551-.489H19.38v3.54ZM28.094 108V96.364h7.295v1.511h-5.54v3.545h5.16v1.506h-5.16v3.563h5.609V108h-7.364Zm9.64-11.636h2.131l3.705 9.045h.136l3.705-9.045h2.13V108h-1.67v-8.42h-.108l-3.432 8.403h-1.386l-3.432-8.41h-.108V108h-1.67V96.364Z"/><g clip-path="url(#a)"><path fill="#000" d="M.081 10.332h15.43v5.563H.081v-5.563ZM.081 0h15.43v5.563H.081V0Zm27.684 20.584H.081v5.563h26.646c2.918 0 9.725.08 12.254 5.087v-3.1c-1.232-4.927-4.863-7.55-11.216-7.55Zm.064 10.332H.081v5.563h26.646c6.484 0 10.568.318 12.254 1.43v-2.463c-1.297-3.894-6.743-4.53-11.151-4.53Zm-.064 26.226H.081V51.58h26.646c2.918 0 9.725-.08 12.254-5.086v3.1c-1.232 4.927-4.863 7.55-11.216 7.55Zm.064-10.331H.081v-5.563h26.646c6.484 0 10.568-.318 12.254-1.431v2.464c-1.297 3.894-6.743 4.53-11.151 4.53Zm17.894 19.948h20.358v-3.417H46.307c-1.75 0-5.9-.08-7.39-3.02v1.907c.712 2.94 2.916 4.53 6.806 4.53Zm-.064-6.279h20.357v-3.417h-19.71c-3.954 0-6.418-.159-7.39-.874v1.51c.778 2.384 4.084 2.782 6.742 2.782Z"/></g><defs><clipPath id="a"><path fill="#fff" d="M.081 0h66v67h-66z"/></clipPath></defs></svg>