<svg xmlns="http://www.w3.org/2000/svg" width="68" height="112" fill="none"><path fill="#000" d="M23.188 100.148h-1.772a2.71 2.71 0 0 0-1.063-1.733c-.269-.201-.57-.353-.903-.455a3.53 3.53 0 0 0-1.052-.153c-.67 0-1.27.168-1.8.505-.527.338-.944.832-1.25 1.484-.304.651-.455 1.446-.455 2.386 0 .947.151 1.746.454 2.398.307.651.726 1.143 1.256 1.477.53.333 1.127.5 1.79.5.367 0 .716-.049 1.045-.148.334-.102.635-.252.904-.449a2.725 2.725 0 0 0 1.074-1.71l1.772.006a4.744 4.744 0 0 1-.55 1.579c-.27.477-.616.89-1.04 1.239-.421.345-.902.612-1.444.801a5.348 5.348 0 0 1-1.773.284c-1.007 0-1.905-.239-2.693-.716-.788-.481-1.409-1.168-1.863-2.062-.451-.894-.676-1.961-.676-3.199 0-1.243.227-2.309.681-3.199.455-.894 1.076-1.58 1.864-2.057.788-.48 1.684-.722 2.687-.722.618 0 1.194.09 1.728.268.538.174 1.02.431 1.449.772.428.337.782.75 1.062 1.239.28.485.47 1.04.568 1.665Zm8.448-.727a1.66 1.66 0 0 0-.75-1.25c-.44-.3-.993-.45-1.66-.45-.477 0-.89.076-1.238.228-.348.148-.62.352-.813.614-.189.257-.284.55-.284.88 0 .277.065.515.194.716.132.201.305.369.517.506.216.132.447.244.693.335.246.087.483.159.71.216l1.136.295c.372.091.752.214 1.143.37.39.155.751.36 1.085.613.333.254.602.568.806.944.209.374.313.823.313 1.346 0 .659-.17 1.244-.511 1.756-.337.511-.828.915-1.472 1.21-.64.295-1.415.443-2.324.443-.871 0-1.625-.138-2.261-.415-.637-.276-1.135-.668-1.495-1.176-.36-.511-.558-1.117-.596-1.818h1.761c.034.421.17.771.41 1.051.242.277.55.483.925.62.38.132.794.198 1.245.198.496 0 .937-.077 1.324-.233.39-.159.697-.378.92-.659a1.56 1.56 0 0 0 .335-.994c0-.345-.098-.627-.295-.847a2.191 2.191 0 0 0-.79-.545 7.73 7.73 0 0 0-1.12-.381l-1.374-.375c-.932-.253-1.67-.627-2.216-1.119-.542-.492-.813-1.144-.813-1.954 0-.671.182-1.256.546-1.756.363-.5.856-.889 1.477-1.165.621-.28 1.322-.42 2.102-.42.788 0 1.483.138 2.086.414.606.277 1.083.657 1.431 1.142.349.481.53 1.035.546 1.66h-1.693Zm10.297 0a1.66 1.66 0 0 0-.75-1.25c-.44-.3-.993-.45-1.66-.45-.477 0-.89.076-1.238.228-.349.148-.62.352-.813.614-.189.257-.284.55-.284.88 0 .277.065.515.194.716.132.201.304.369.517.506.215.132.447.244.693.335.246.087.483.159.71.216l1.136.295c.371.091.752.214 1.142.37.39.155.752.36 1.086.613.333.254.602.568.806.944.209.374.313.823.313 1.346 0 .659-.17 1.244-.511 1.756-.338.511-.828.915-1.472 1.21-.64.295-1.415.443-2.324.443-.871 0-1.625-.138-2.261-.415-.637-.276-1.135-.668-1.495-1.176-.36-.511-.558-1.117-.596-1.818h1.761c.034.421.17.771.41 1.051.242.277.55.483.925.62.38.132.794.198 1.245.198.496 0 .937-.077 1.324-.233.39-.159.697-.378.92-.659a1.56 1.56 0 0 0 .335-.994c0-.345-.098-.627-.295-.847a2.191 2.191 0 0 0-.79-.545 7.725 7.725 0 0 0-1.12-.381l-1.374-.375c-.932-.253-1.67-.627-2.216-1.119-.542-.492-.813-1.144-.813-1.954 0-.671.182-1.256.546-1.756.363-.5.856-.889 1.477-1.165.621-.28 1.322-.42 2.102-.42.788 0 1.483.138 2.085.414.607.277 1.084.657 1.432 1.142.349.481.53 1.035.546 1.66h-1.693Zm7.842 8.738c-.78 0-1.477-.134-2.091-.403-.61-.269-1.093-.642-1.449-1.12a2.971 2.971 0 0 1-.568-1.67h1.784c.023.345.138.644.347.898.212.25.488.443.83.579.34.137.719.205 1.136.205.458 0 .863-.08 1.215-.239.357-.159.635-.381.836-.665.2-.288.3-.619.3-.994 0-.39-.1-.733-.3-1.028-.197-.3-.487-.535-.87-.705-.378-.17-.837-.256-1.375-.256h-.983v-1.431h.983c.432 0 .811-.078 1.137-.233.33-.156.587-.372.773-.648.185-.28.278-.608.278-.983 0-.36-.082-.672-.244-.938a1.642 1.642 0 0 0-.682-.63c-.292-.152-.637-.227-1.034-.227-.38 0-.733.07-1.063.21a1.96 1.96 0 0 0-.795.59 1.52 1.52 0 0 0-.33.915h-1.699a2.87 2.87 0 0 1 .557-1.659 3.6 3.6 0 0 1 1.41-1.119 4.586 4.586 0 0 1 1.942-.404c.747 0 1.39.146 1.932.438.546.288.966.672 1.262 1.154.299.48.447 1.007.443 1.579.004.652-.178 1.205-.546 1.659-.363.455-.848.76-1.454.915v.091c.773.117 1.371.424 1.795.92.428.496.64 1.112.637 1.847a2.871 2.871 0 0 1-.535 1.721c-.356.508-.842.908-1.46 1.199-.617.288-1.324.432-2.12.432Z"/><g clip-path="url(#a)"><path fill="#000" d="M57.568 64.806 62.852 5H4.082l.068.776 5.206 59.038.044.492L33.244 72h.376l23.898-6.7.045-.491.005-.003Zm-24.05-46.744h17.076l-.513 6.03-16.848 7.571.282 1.363h15.809l-1.82 21.08-14.047 3.936-14.042-3.931-.884-10.095h5.781l.464 5.117.044.497 8.52 2.29h.368l8.427-2.368.041-.494.795-9.453.064-.77H18.048l-.525-6.066 17.425-7.54-.276-1.369H16.775l-.511-5.806h17.234l.02.008Z"/></g><defs><clipPath id="a"><path fill="#fff" d="M4.081 5h58v67h-58z"/></clipPath></defs></svg>