<svg xmlns="http://www.w3.org/2000/svg" width="68" height="112" class="skills__svg skills__svg--one"><path d="M29.235 100.04a3.553 3.553 0 0 0-.444-.926 2.832 2.832 0 0 0-1.522-1.154 3.498 3.498 0 0 0-1.063-.153c-.655 0-1.246.168-1.773.505-.526.338-.943.832-1.25 1.484-.303.647-.454 1.441-.454 2.38 0 .943.153 1.741.46 2.392.307.652.727 1.146 1.261 1.483.535.337 1.142.506 1.824.506.633 0 1.184-.129 1.654-.387a2.69 2.69 0 0 0 1.096-1.09c.262-.474.392-1.031.392-1.671l.455.085h-3.33v-1.449h4.574v1.324c0 .978-.208 1.826-.625 2.546a4.253 4.253 0 0 1-1.716 1.659c-.727.39-1.56.585-2.5.585-1.053 0-1.977-.242-2.773-.727-.791-.485-1.409-1.173-1.852-2.063-.443-.894-.665-1.954-.665-3.181 0-.929.13-1.762.387-2.5.257-.74.62-1.366 1.085-1.881a4.738 4.738 0 0 1 1.654-1.188 5.176 5.176 0 0 1 2.085-.415 5.38 5.38 0 0 1 1.755.279c.546.186 1.03.449 1.455.79a4.472 4.472 0 0 1 1.63 2.767h-1.8Zm4.52 7.96v-8.727h1.698V108h-1.699Zm.857-10.074a1.08 1.08 0 0 1-.761-.295.96.96 0 0 1-.313-.716c0-.28.105-.52.313-.716.212-.2.466-.301.761-.301.296 0 .548.1.756.3a.941.941 0 0 1 .318.717.953.953 0 0 1-.318.716 1.06 1.06 0 0 1-.756.295Zm7.2 1.347v1.363h-4.767v-1.363h4.768Zm-3.488-2.091h1.699v8.256c0 .329.05.577.147.744a.772.772 0 0 0 .381.335c.16.057.332.085.517.085.137 0 .256-.009.358-.028.102-.019.182-.034.239-.046l.307 1.404a2.75 2.75 0 0 1-.42.113c-.183.042-.41.065-.683.069a2.995 2.995 0 0 1-1.25-.239 2.143 2.143 0 0 1-.937-.773c-.239-.348-.358-.786-.358-1.312v-8.608Z"/><g clip-path="url(#a)"><path d="M65.817 35.687 36.572 6.27A4.306 4.306 0 0 0 33.521 5a4.305 4.305 0 0 0-3.052 1.27l-6.08 6.11 7.704 7.749c4.047-1.375 7.879 2.522 6.49 6.569l7.426 7.468c5.12-1.774 9.15 4.662 5.305 8.526-3.962 3.984-10.5-.432-8.375-5.616l-6.932-6.961V48.44c3.784 1.886 3.329 6.294 1.358 8.271a5.121 5.121 0 0 1-3.63 1.512 5.12 5.12 0 0 1-3.63-1.512c-2.629-2.647-1.657-7.054 1.681-8.422V29.791c-3.11-1.28-3.678-4.623-2.787-6.767l-7.596-7.648L1.345 35.55A4.353 4.353 0 0 0 .08 38.619c0 1.15.455 2.254 1.264 3.068l29.254 29.417a4.304 4.304 0 0 0 3.051 1.27 4.304 4.304 0 0 0 3.05-1.27l29.117-29.28a4.353 4.353 0 0 0 1.264-3.069c0-1.15-.454-2.254-1.264-3.068Z"/></g><defs><clipPath id="a"><path fill="#fff" d="M.081 0h67v77h-67z"/></clipPath></defs></svg>