<svg xmlns="http://www.w3.org/2000/svg" width="68" height="112" fill="none"><path fill="#000" d="M6.555 108V96.364H8.31v5.056h5.802v-5.056h1.761V108h-1.761v-5.074H8.31V108H6.555Zm11.3-10.125v-1.511h9.007v1.511H23.23V108h-1.75V97.875h-3.625Zm10.997-1.511h2.13l3.705 9.045h.136l3.705-9.045h2.13V108h-1.67v-8.42h-.108l-3.432 8.403h-1.386l-3.432-8.41h-.108V108h-1.67V96.364ZM43.21 108V96.364h1.756v10.125h5.272V108h-7.028Zm12.713.159c-.712 0-1.352-.136-1.92-.409a3.494 3.494 0 0 1-1.353-1.136 3.001 3.001 0 0 1-.54-1.648h1.705c.042.5.263.911.665 1.233.401.322.883.483 1.443.483.447 0 .843-.102 1.188-.307.348-.208.62-.494.818-.858.2-.364.3-.778.3-1.244a2.58 2.58 0 0 0-.306-1.267 2.259 2.259 0 0 0-.846-.875 2.394 2.394 0 0 0-1.228-.324c-.352 0-.706.06-1.062.182-.356.121-.644.28-.864.477l-1.608-.239.653-5.863h6.398v1.505H54.43l-.37 3.256h.069c.227-.22.528-.403.903-.551a3.311 3.311 0 0 1 1.216-.222c.708 0 1.339.169 1.892.506a3.59 3.59 0 0 1 1.313 1.381c.322.579.48 1.246.477 2 .004.753-.167 1.426-.512 2.017a3.702 3.702 0 0 1-1.42 1.397c-.602.338-1.294.506-2.074.506ZM4.042 5 9.42 65.3 33.548 72l24.19-6.708L63.125 5H4.042ZM51.42 24.723h-28.3l.675 7.575H50.75l-2.031 22.705-15.171 4.204-15.15-4.204-1.035-11.616h7.424l.528 5.904 8.237 2.22.017-.005 8.24-2.223.855-9.59H17.032L15.04 17.328h37.047l-.662 7.395h-.004Z"/></svg>