<svg xmlns="http://www.w3.org/2000/svg" width="81" height="112" fill="none"><path fill="#000" d="M5.945 96.364h1.75v8.25c0 .746-.148 1.384-.443 1.914a2.952 2.952 0 0 1-1.233 1.216c-.53.277-1.152.415-1.864.415-.655 0-1.244-.119-1.767-.358a2.907 2.907 0 0 1-1.233-1.04c-.3-.458-.449-1.015-.449-1.67H2.45c0 .322.074.6.222.835.151.235.358.419.62.551.264.129.567.193.908.193.372 0 .686-.077.944-.232.26-.16.46-.393.596-.699.137-.307.205-.682.205-1.125v-8.25Zm6.708 11.829a3.557 3.557 0 0 1-1.5-.307 2.523 2.523 0 0 1-1.062-.903c-.258-.394-.386-.877-.386-1.449 0-.492.094-.898.284-1.216.19-.318.445-.57.767-.756a4.035 4.035 0 0 1 1.08-.42 10.61 10.61 0 0 1 1.215-.216l1.273-.148c.326-.041.563-.108.71-.198.148-.091.222-.239.222-.444v-.039c0-.497-.14-.881-.42-1.154-.277-.273-.69-.409-1.24-.409-.571 0-1.022.127-1.352.381-.325.25-.55.528-.676.835l-1.596-.364c.19-.53.466-.958.83-1.284.367-.33.789-.568 1.266-.716.478-.151.98-.227 1.506-.227.348 0 .718.042 1.108.125.394.08.761.227 1.102.443.345.216.627.525.847.926.22.398.33.915.33 1.552V108H15.3v-1.193h-.068c-.11.22-.275.435-.494.648-.22.212-.502.388-.847.528s-.757.21-1.239.21Zm.37-1.363c.47 0 .871-.093 1.204-.279.338-.185.593-.428.767-.727.178-.303.268-.627.268-.972v-1.125c-.061.061-.179.118-.353.171-.17.049-.365.093-.585.13a62.4 62.4 0 0 1-.642.097l-.523.068a4.26 4.26 0 0 0-.903.21 1.554 1.554 0 0 0-.648.427c-.159.181-.239.424-.239.727 0 .42.156.738.466.954.31.212.707.319 1.188.319Zm13.354-7.557L23.212 108h-1.818l-3.17-8.727h1.823l2.21 6.716h.091l2.205-6.716h1.823Zm3.886 8.92a3.556 3.556 0 0 1-1.5-.307 2.523 2.523 0 0 1-1.063-.903c-.257-.394-.386-.877-.386-1.449 0-.492.095-.898.284-1.216.19-.318.445-.57.767-.756a4.037 4.037 0 0 1 1.08-.42 10.61 10.61 0 0 1 1.216-.216l1.272-.148c.326-.041.563-.108.71-.198.148-.091.222-.239.222-.444v-.039c0-.497-.14-.881-.42-1.154-.277-.273-.69-.409-1.239-.409-.572 0-1.023.127-1.352.381-.326.25-.551.528-.676.835l-1.597-.364c.19-.53.466-.958.83-1.284.367-.33.79-.568 1.267-.716.477-.151.979-.227 1.505-.227.349 0 .718.042 1.108.125.394.08.762.227 1.103.443.344.216.626.525.846.926.22.398.33.915.33 1.552V108h-1.66v-1.193h-.068c-.11.22-.274.435-.494.648-.22.212-.502.388-.846.528-.345.14-.758.21-1.24.21Zm.37-1.363c.469 0 .87-.093 1.204-.279.337-.185.592-.428.767-.727.178-.303.267-.627.267-.972v-1.125c-.06.061-.178.118-.352.171a5.34 5.34 0 0 1-.586.13c-.22.034-.433.067-.642.097l-.522.068c-.33.042-.631.112-.904.21a1.554 1.554 0 0 0-.648.427c-.159.181-.238.424-.238.727 0 .42.155.738.466.954.31.212.706.319 1.187.319Zm12.682-7.41a1.66 1.66 0 0 0-.75-1.25c-.439-.299-.992-.448-1.659-.448-.477 0-.89.075-1.238.227-.349.148-.62.352-.813.614-.19.257-.284.55-.284.88 0 .277.065.515.193.716.133.201.305.369.517.506.216.132.447.244.694.335.246.087.483.159.71.216l1.136.295c.371.091.752.214 1.142.37.39.155.752.36 1.085.613.334.254.603.568.807.944.209.374.313.823.313 1.346 0 .659-.17 1.244-.512 1.756-.337.511-.827.915-1.471 1.21-.64.295-1.415.443-2.324.443-.871 0-1.625-.138-2.261-.415-.637-.276-1.135-.668-1.495-1.176-.36-.511-.558-1.117-.596-1.818h1.761c.034.421.17.771.41 1.051.242.277.55.483.925.62.379.132.794.198 1.245.198.496 0 .937-.077 1.323-.233.39-.159.697-.378.92-.659a1.56 1.56 0 0 0 .336-.994c0-.345-.098-.627-.295-.847a2.191 2.191 0 0 0-.79-.545 7.725 7.725 0 0 0-1.12-.381l-1.374-.375c-.932-.253-1.67-.627-2.216-1.119-.542-.492-.813-1.144-.813-1.954 0-.671.182-1.256.546-1.756.363-.5.856-.889 1.477-1.165.621-.28 1.322-.42 2.102-.42.788 0 1.483.138 2.085.414.606.277 1.084.657 1.432 1.142.349.481.53 1.035.546 1.66h-1.694Zm7.49 8.756c-.844 0-1.572-.191-2.181-.574a3.796 3.796 0 0 1-1.398-1.596c-.326-.678-.489-1.455-.489-2.33 0-.886.167-1.668.5-2.346a3.832 3.832 0 0 1 1.41-1.597c.605-.383 1.32-.574 2.141-.574.663 0 1.254.123 1.773.37.52.242.938.583 1.256 1.022.322.44.513.953.574 1.54h-1.654c-.09-.409-.299-.761-.625-1.057-.322-.295-.754-.443-1.295-.443a2.11 2.11 0 0 0-1.245.375c-.352.246-.626.598-.823 1.057-.197.454-.296.992-.296 1.613 0 .637.097 1.186.29 1.648.193.462.466.82.818 1.074.356.254.775.381 1.256.381.322 0 .614-.059.875-.177.265-.121.487-.293.665-.517.181-.223.308-.492.38-.806h1.654a3.212 3.212 0 0 1-.551 1.511 3.165 3.165 0 0 1-1.233 1.045c-.512.254-1.112.381-1.801.381Zm5.403-.176v-8.727h1.642v1.386h.09c.16-.47.44-.839.841-1.108.406-.273.864-.409 1.375-.409a7.236 7.236 0 0 1 .722.04v1.625a3.063 3.063 0 0 0-.364-.063 3.537 3.537 0 0 0-.522-.039c-.402 0-.76.085-1.074.255a1.904 1.904 0 0 0-1.012 1.71V108h-1.698Zm6.14 0v-8.727h1.699V108h-1.699Zm.858-10.074a1.08 1.08 0 0 1-.761-.295.96.96 0 0 1-.313-.716c0-.28.104-.52.313-.716.212-.2.466-.301.761-.301s.547.1.756.3a.94.94 0 0 1 .318.717.953.953 0 0 1-.318.716 1.06 1.06 0 0 1-.756.295Zm3.126 13.347v-12h1.66v1.415h.142c.098-.182.24-.393.426-.631a2.41 2.41 0 0 1 .772-.625c.33-.182.766-.273 1.307-.273.705 0 1.334.178 1.887.534.553.356.986.869 1.3 1.54.319.67.478 1.477.478 2.42 0 .944-.157 1.752-.472 2.427-.314.67-.746 1.187-1.295 1.551-.55.36-1.176.539-1.88.539-.531 0-.965-.089-1.302-.267a2.458 2.458 0 0 1-.784-.625 4.667 4.667 0 0 1-.437-.636h-.103v4.631h-1.699Zm1.665-7.637c0 .614.09 1.152.267 1.614.178.462.436.824.773 1.085.337.258.75.387 1.239.387.507 0 .931-.135 1.272-.404.341-.273.599-.642.773-1.108.178-.466.267-.99.267-1.574 0-.575-.087-1.092-.261-1.551-.17-.458-.428-.82-.773-1.085-.34-.265-.767-.398-1.278-.398-.493 0-.91.127-1.25.381-.337.254-.593.608-.767 1.062-.175.455-.262.985-.262 1.591Zm12.284-4.363v1.363h-4.767v-1.363h4.767Zm-3.488-2.091h1.699v8.256c0 .329.049.577.147.744a.772.772 0 0 0 .381.335c.16.057.331.085.517.085.136 0 .256-.009.358-.028.102-.019.182-.034.239-.046l.306 1.404a2.748 2.748 0 0 1-.42.113c-.182.042-.41.065-.682.069a2.995 2.995 0 0 1-1.25-.239 2.143 2.143 0 0 1-.937-.773c-.239-.348-.358-.786-.358-1.312v-8.608Z"/><g clip-path="url(#a)"><path fill="#000" d="M9.081 5v63h63V5h-63Zm34.284 49.134c0 6.132-3.6 8.93-8.845 8.93-4.739 0-7.481-2.447-8.887-5.414l4.823-2.91c.928 1.644 1.772 3.037 3.811 3.037 1.94 0 3.178-.76 3.178-3.727V33.927h5.92v20.207Zm14.007 8.93c-5.499 0-9.057-2.616-10.786-6.047l4.823-2.784c1.266 2.067 2.925 3.6 5.836 3.6 2.447 0 4.022-1.224 4.022-2.925 0-2.025-1.603-2.742-4.317-3.938l-1.477-.633c-4.275-1.814-7.101-4.106-7.101-8.93 0-4.443 3.389-7.818 8.662-7.818 3.769 0 6.469 1.308 8.41 4.74L60.83 41.28c-1.012-1.814-2.11-2.531-3.81-2.531-1.73 0-2.827 1.097-2.827 2.531 0 1.772 1.096 2.49 3.642 3.6l1.476.633c5.035 2.152 7.861 4.36 7.861 9.31 0 5.315-4.19 8.24-9.801 8.24Z"/></g><defs><clipPath id="a"><path fill="#fff" d="M9.081 0h63v72h-63z"/></clipPath></defs></svg>