<svg xmlns="http://www.w3.org/2000/svg" width="73" height="112" ><path d="M24.109 96.364h1.75v8.25c0 .746-.148 1.384-.443 1.914a2.952 2.952 0 0 1-1.233 1.216c-.53.277-1.152.415-1.864.415-.655 0-1.244-.119-1.767-.358a2.906 2.906 0 0 1-1.233-1.04c-.3-.458-.449-1.015-.449-1.67h1.744c0 .322.074.6.222.835.152.235.358.419.62.551.265.129.567.193.908.193.372 0 .686-.077.944-.232.261-.16.46-.393.596-.699.137-.307.205-.682.205-1.125v-8.25Zm6.709 11.829a3.556 3.556 0 0 1-1.5-.307 2.523 2.523 0 0 1-1.063-.903c-.258-.394-.386-.877-.386-1.449 0-.492.094-.898.284-1.216.19-.318.445-.57.767-.756a4.037 4.037 0 0 1 1.08-.42 10.61 10.61 0 0 1 1.215-.216l1.273-.148c.326-.041.563-.108.71-.198.148-.091.222-.239.222-.444v-.039c0-.497-.14-.881-.42-1.154-.277-.273-.69-.409-1.24-.409-.571 0-1.022.127-1.352.381-.325.25-.55.528-.676.835l-1.596-.364c.19-.53.466-.958.83-1.284.367-.33.79-.568 1.266-.716.478-.151.98-.227 1.506-.227.349 0 .718.042 1.108.125.394.08.761.227 1.102.443.345.216.627.525.847.926.22.398.33.915.33 1.552V108h-1.66v-1.193h-.068c-.11.22-.274.435-.494.648-.22.212-.502.388-.847.528-.344.14-.757.21-1.238.21Zm.369-1.363c.47 0 .871-.093 1.204-.279.337-.185.593-.428.767-.727.178-.303.267-.627.267-.972v-1.125c-.06.061-.177.118-.352.171-.17.049-.365.093-.585.13-.22.034-.434.067-.642.097l-.523.068c-.33.042-.63.112-.903.21a1.554 1.554 0 0 0-.648.427c-.159.181-.238.424-.238.727 0 .42.155.738.465.954.311.212.707.319 1.188.319Zm13.354-7.557L41.376 108h-1.818l-3.17-8.727h1.823l2.21 6.716h.091l2.205-6.716h1.824Zm3.886 8.92a3.557 3.557 0 0 1-1.5-.307 2.524 2.524 0 0 1-1.063-.903c-.257-.394-.386-.877-.386-1.449 0-.492.095-.898.284-1.216.19-.318.445-.57.767-.756a4.035 4.035 0 0 1 1.08-.42 10.61 10.61 0 0 1 1.216-.216l1.272-.148c.326-.041.563-.108.71-.198.148-.091.222-.239.222-.444v-.039c0-.497-.14-.881-.42-1.154-.277-.273-.69-.409-1.239-.409-.572 0-1.023.127-1.352.381-.326.25-.551.528-.676.835l-1.597-.364c.19-.53.466-.958.83-1.284.367-.33.79-.568 1.267-.716.477-.151.979-.227 1.505-.227.349 0 .718.042 1.108.125.394.08.762.227 1.103.443.344.216.627.525.846.926.22.398.33.915.33 1.552V108h-1.66v-1.193h-.067c-.11.22-.275.435-.495.648-.22.212-.502.388-.846.528-.345.14-.758.21-1.24.21Zm.37-1.363c.469 0 .87-.093 1.204-.279.337-.185.593-.428.767-.727.178-.303.267-.627.267-.972v-1.125c-.06.061-.178.118-.352.171-.17.049-.366.093-.586.13-.22.034-.433.067-.642.097l-.522.068c-.33.042-.631.112-.904.21a1.554 1.554 0 0 0-.648.427c-.159.181-.238.424-.238.727 0 .42.155.738.466.954.31.212.706.319 1.187.319ZM26.638 55.676s-2.754 1.605 1.955 2.142c5.706.657 8.624.565 14.906-.632 0 0 1.65 1.044 3.96 1.946-14.096 6.037-31.898-.362-20.823-3.456h.002Zm-1.726-7.875s-3.094 2.284 1.618 2.763c6.109.633 10.91.693 19.242-.911 0 0 1.15 1.161 2.968 1.802-17.04 4.98-36.025.387-23.826-3.654h-.002Zm14.52-13.37c3.467 3.997-.916 7.595-.916 7.595s8.813-4.561 4.77-10.254c-3.783-5.321-6.69-7.956 9.01-17.064 0 0-24.643 6.154-12.867 19.726l.002-.002Zm18.634 27.082s2.04 1.674-2.239 2.977c-8.134 2.459-33.856 3.197-41.004.092-2.565-1.114 2.25-2.671 3.762-2.988 1.582-.351 2.484-.28 2.484-.28-2.86-2.015-18.468 3.95-7.931 5.66 28.746 4.664 52.391-2.098 44.928-5.461ZM27.96 39.633s-13.088 3.106-4.642 4.23c3.575.48 10.69.377 17.323-.186 5.411-.459 10.852-1.431 10.852-1.431s-1.91.819-3.294 1.77c-13.291 3.493-38.964 1.864-31.57-1.71 6.246-3.012 11.33-2.672 11.33-2.672Zm23.472 13.125c13.5-7.031 7.254-13.77 2.907-12.854-1.069.209-1.548.411-1.548.411s.387-.623 1.15-.89c8.624-3.036 15.257 8.939-2.78 13.686 0-.011.215-.186.27-.35v-.003ZM43.288 0s7.479 7.477-7.101 18.983c-11.682 9.234-2.662 14.497 0 20.509-6.82-6.154-11.824-11.565-8.471-16.605C32.648 15.469 46.3 11.882 43.288 0ZM29.284 71.777c12.962.82 32.87-.468 33.354-6.597 0 0-.916 2.32-10.726 4.17-11.06 2.085-24.714 1.838-32.812.504 0 0 1.665 1.37 10.182 1.923h.002Z"/></svg>