<svg xmlns="http://www.w3.org/2000/svg" width="73" height="112" fill="none"><path fill="#000" d="M15.492 108V96.364h4.148c.901 0 1.65.155 2.244.465.599.311 1.046.741 1.341 1.29.296.546.443 1.177.443 1.892 0 .712-.15 1.339-.448 1.881-.296.538-.743.956-1.341 1.256-.595.299-1.343.449-2.245.449h-3.142v-1.512h2.983c.568 0 1.03-.081 1.387-.244.36-.163.623-.4.79-.71.166-.311.25-.684.25-1.12 0-.439-.086-.82-.256-1.142a1.65 1.65 0 0 0-.79-.738c-.356-.175-.824-.262-1.404-.262h-2.204V108h-1.756Zm5.745-5.25 2.875 5.25h-2l-2.819-5.25h1.944Zm8.083 5.426c-.86 0-1.6-.184-2.221-.551a3.735 3.735 0 0 1-1.432-1.563c-.333-.674-.5-1.464-.5-2.369 0-.894.167-1.682.5-2.363a3.885 3.885 0 0 1 1.41-1.597c.605-.383 1.313-.574 2.124-.574.492 0 .97.081 1.432.244.462.163.877.419 1.244.767.368.349.657.802.87 1.358.212.553.318 1.226.318 2.017v.603h-6.938v-1.273H31.4c0-.447-.091-.843-.273-1.187a2.054 2.054 0 0 0-.767-.824c-.326-.201-.708-.302-1.148-.302-.477 0-.893.118-1.25.353a2.363 2.363 0 0 0-.818.909c-.19.371-.284.774-.284 1.21v.994c0 .584.102 1.08.307 1.489.208.409.498.722.87.938.37.212.804.318 1.3.318.322 0 .616-.046.881-.137.265-.094.494-.234.688-.42a1.83 1.83 0 0 0 .443-.688l1.608.29c-.129.474-.36.888-.693 1.244-.33.353-.745.627-1.245.824-.496.194-1.062.29-1.699.29Zm8.17.017a3.557 3.557 0 0 1-1.5-.307 2.524 2.524 0 0 1-1.063-.903c-.258-.394-.386-.877-.386-1.449 0-.492.094-.898.284-1.216.19-.318.445-.57.767-.756a4.035 4.035 0 0 1 1.08-.42 10.61 10.61 0 0 1 1.215-.216l1.273-.148c.326-.041.562-.108.71-.198.148-.091.222-.239.222-.444v-.039c0-.497-.14-.881-.42-1.154-.277-.273-.69-.409-1.24-.409-.571 0-1.022.127-1.352.381-.325.25-.55.528-.676.835l-1.596-.364c.189-.53.465-.958.83-1.284.367-.33.789-.568 1.266-.716.477-.151.98-.227 1.506-.227.348 0 .718.042 1.108.125.394.08.761.227 1.102.443.345.216.627.525.847.926.22.398.33.915.33 1.552V108h-1.66v-1.193h-.068c-.11.22-.275.435-.494.648-.22.212-.502.388-.847.528s-.758.21-1.239.21Zm.369-1.363c.47 0 .871-.093 1.204-.279.337-.185.593-.428.767-.727.178-.303.267-.627.267-.972v-1.125c-.06.061-.178.118-.352.171-.17.049-.365.093-.585.13-.22.034-.434.067-.642.097l-.523.068c-.33.042-.63.112-.903.21a1.554 1.554 0 0 0-.648.427c-.16.181-.239.424-.239.727 0 .42.156.738.466.954.31.212.707.319 1.188.319Zm9.876 1.346c-.844 0-1.572-.191-2.182-.574a3.796 3.796 0 0 1-1.397-1.596c-.326-.678-.489-1.455-.489-2.33 0-.886.167-1.668.5-2.346a3.832 3.832 0 0 1 1.41-1.597c.605-.383 1.32-.574 2.141-.574.663 0 1.254.123 1.773.37.519.242.937.583 1.255 1.022.322.44.514.953.574 1.54h-1.653c-.09-.409-.3-.761-.625-1.057-.322-.295-.754-.443-1.296-.443a2.11 2.11 0 0 0-1.244.375c-.352.246-.627.598-.824 1.057-.197.454-.295.992-.295 1.613 0 .637.096 1.186.29 1.648.193.462.466.82.818 1.074.356.254.775.381 1.255.381.322 0 .614-.059.875-.177.266-.121.487-.293.665-.517.182-.223.309-.492.381-.806h1.653a3.212 3.212 0 0 1-.55 1.511 3.166 3.166 0 0 1-1.234 1.045c-.511.254-1.111.381-1.8.381Zm9.476-8.903v1.363h-4.767v-1.363h4.767Zm-3.489-2.091h1.7v8.256c0 .329.049.577.147.744a.772.772 0 0 0 .38.335c.16.057.332.085.518.085.136 0 .255-.009.358-.028l.238-.046.307 1.404a2.748 2.748 0 0 1-.42.113c-.182.042-.41.065-.682.069a2.995 2.995 0 0 1-1.25-.239 2.144 2.144 0 0 1-.938-.773c-.238-.348-.358-.786-.358-1.312v-8.608Z"/><g fill="#000" clip-path="url(#a)"><path d="M72.081 35.067c0-4.77-5.973-9.291-15.132-12.093 2.115-9.333 1.176-16.761-2.964-19.14a6.435 6.435 0 0 0-3.288-.819v3.27c.675 0 1.218.135 1.674.384 1.995 1.146 2.862 5.502 2.187 11.109-.162 1.38-.426 2.832-.75 4.314a71.112 71.112 0 0 0-9.318-1.599 71.584 71.584 0 0 0-6.105-7.338c4.785-4.446 9.276-6.882 12.33-6.882V3c-4.038 0-9.32 2.877-14.664 7.866-5.34-4.956-10.626-7.806-14.66-7.806v3.27c3.038 0 7.544 2.424 12.33 6.84a69.685 69.685 0 0 0-6.064 7.323 68.526 68.526 0 0 0-9.333 1.614 44.022 44.022 0 0 1-.765-4.254c-.69-5.61.162-9.966 2.145-11.124.438-.264 1.011-.384 1.686-.384v-3.27c-1.23 0-2.349.264-3.315.819-4.125 2.379-5.049 9.789-2.922 19.095C6.024 25.809.081 30.312.081 35.067c0 4.77 5.973 9.291 15.132 12.09-2.115 9.336-1.176 16.764 2.964 19.14.954.558 2.07.822 3.3.822 4.038 0 9.321-2.877 14.664-7.866 5.34 4.959 10.623 7.806 14.661 7.806a6.54 6.54 0 0 0 3.315-.822c4.125-2.376 5.05-9.786 2.922-19.092 9.1-2.802 15.042-7.323 15.042-12.078Zm-19.11-9.789a66.104 66.104 0 0 1-1.98 5.796 79.374 79.374 0 0 0-4.035-6.957c2.085.309 4.095.69 6.018 1.161h-.003Zm-6.72 15.63a77.848 77.848 0 0 1-3.537 5.607 76.36 76.36 0 0 1-13.236.015 76.369 76.369 0 0 1-6.603-11.418 78.186 78.186 0 0 1 6.576-11.46 76.366 76.366 0 0 1 13.233-.018 79.935 79.935 0 0 1 3.552 5.58 75.25 75.25 0 0 1 3.054 5.838 82.265 82.265 0 0 1-3.039 5.856ZM50.991 39a62.089 62.089 0 0 1 2.025 5.841c-1.92.471-3.948.867-6.045 1.173A81.148 81.148 0 0 0 50.991 39Zm-14.88 15.66a60.322 60.322 0 0 1-4.08-4.698c1.32.06 2.67.105 4.035.105 1.38 0 2.745-.03 4.08-.105a57.053 57.053 0 0 1-4.035 4.698Zm-10.92-8.646a66.335 66.335 0 0 1-6.018-1.158 66.247 66.247 0 0 1 1.98-5.796 73.134 73.134 0 0 0 1.926 3.522 94.98 94.98 0 0 0 2.112 3.432Zm10.845-30.54a60.322 60.322 0 0 1 4.08 4.698c-1.32-.06-2.67-.105-4.035-.105-1.38 0-2.745.03-4.08.105a57.053 57.053 0 0 1 4.035-4.698Zm-10.86 8.646a81.047 81.047 0 0 0-4.02 6.999 62.861 62.861 0 0 1-2.025-5.841 69.924 69.924 0 0 1 6.045-1.158Zm-13.28 18.372c-5.197-2.214-8.557-5.121-8.557-7.425 0-2.304 3.36-5.226 8.556-7.425 1.26-.543 2.64-1.029 4.065-1.482.837 2.874 1.938 5.868 3.3 8.937a69.485 69.485 0 0 0-3.255 8.892 44.61 44.61 0 0 1-4.11-1.497Zm7.895 20.97c-1.995-1.14-2.862-5.502-2.187-11.106.162-1.38.426-2.835.75-4.317 2.874.705 6.015 1.248 9.318 1.602a71.595 71.595 0 0 0 6.105 7.338c-4.785 4.446-9.276 6.882-12.33 6.882a3.5 3.5 0 0 1-1.656-.396v-.003Zm34.812-11.181c.69 5.607-.162 9.966-2.145 11.124-.438.264-1.01.381-1.686.381-3.039 0-7.545-2.421-12.33-6.84a69.05 69.05 0 0 0 6.063-7.32 68.529 68.529 0 0 0 9.333-1.614c.34 1.482.6 2.904.765 4.269Zm5.65-9.789c-1.26.543-2.64 1.029-4.066 1.482-.897-3.05-2-6.036-3.3-8.937a69.393 69.393 0 0 0 3.255-8.892c1.398.433 2.775.933 4.125 1.497 5.196 2.214 8.556 5.121 8.556 7.425-.015 2.304-3.375 5.226-8.57 7.425Z"/><path d="M36.066 41.775a6.708 6.708 0 1 0 0-13.416 6.708 6.708 0 0 0 0 13.416Z"/></g><defs><clipPath id="a"><path fill="#fff" d="M.081 0h72v72h-72z"/></clipPath></defs></svg>