<svg xmlns="http://www.w3.org/2000/svg" width="68" height="112" fill="none"><path fill="#000" d="M19.878 99.42a1.66 1.66 0 0 0-.75-1.25c-.44-.299-.992-.448-1.66-.448-.476 0-.89.075-1.238.227-.348.148-.62.352-.812.614-.19.257-.284.55-.284.88 0 .277.064.515.193.716.132.201.305.369.517.506.216.132.447.244.693.335.246.087.483.159.71.216l1.137.295c.37.091.752.214 1.142.37.39.155.752.36 1.085.613.333.254.602.568.807.944.208.374.312.823.312 1.346 0 .659-.17 1.244-.511 1.756-.337.511-.828.915-1.472 1.21-.64.295-1.415.443-2.324.443-.87 0-1.625-.138-2.261-.415-.636-.276-1.134-.668-1.494-1.176-.36-.511-.559-1.117-.597-1.818h1.761c.035.421.17.771.41 1.051.242.277.55.483.926.62.379.132.793.198 1.244.198.496 0 .938-.077 1.324-.233.39-.159.697-.378.92-.659a1.56 1.56 0 0 0 .336-.994c0-.345-.099-.627-.296-.847a2.191 2.191 0 0 0-.79-.545 7.725 7.725 0 0 0-1.119-.381l-1.375-.375c-.932-.253-1.67-.627-2.216-1.119-.542-.492-.812-1.144-.812-1.954 0-.671.181-1.256.545-1.756.364-.5.856-.889 1.477-1.165.622-.28 1.322-.42 2.103-.42.788 0 1.483.138 2.085.414.606.277 1.083.657 1.432 1.142.348.481.53 1.035.545 1.66h-1.693Zm13.615.728H31.72a2.71 2.71 0 0 0-1.062-1.733c-.27-.201-.57-.353-.904-.455a3.53 3.53 0 0 0-1.05-.153c-.671 0-1.272.168-1.802.505-.526.338-.943.832-1.25 1.484-.303.651-.454 1.446-.454 2.386 0 .947.151 1.746.454 2.398.307.651.726 1.143 1.256 1.477.53.333 1.127.5 1.79.5.367 0 .715-.049 1.045-.148.333-.102.635-.252.903-.449a2.725 2.725 0 0 0 1.074-1.71l1.773.006a4.744 4.744 0 0 1-.551 1.579c-.27.477-.616.89-1.04 1.239-.42.345-.901.612-1.443.801a5.348 5.348 0 0 1-1.773.284c-1.007 0-1.905-.239-2.693-.716-.788-.481-1.41-1.168-1.864-2.062-.45-.894-.676-1.961-.676-3.199 0-1.243.227-2.309.682-3.199.455-.894 1.076-1.58 1.864-2.057.788-.48 1.683-.722 2.687-.722.618 0 1.193.09 1.727.268.538.174 1.021.431 1.45.772.427.337.782.75 1.062 1.239.28.485.47 1.04.568 1.665Zm8.447-.727a1.66 1.66 0 0 0-.75-1.25c-.439-.3-.992-.45-1.659-.45-.477 0-.89.076-1.238.228-.349.148-.62.352-.813.614-.19.257-.284.55-.284.88 0 .277.065.515.193.716.133.201.305.369.517.506.216.132.447.244.694.335.246.087.483.159.71.216l1.136.295c.371.091.752.214 1.142.37.39.155.752.36 1.085.613.334.254.603.568.807.944.209.374.313.823.313 1.346 0 .659-.17 1.244-.512 1.756-.337.511-.827.915-1.471 1.21-.64.295-1.415.443-2.324.443-.871 0-1.625-.138-2.261-.415-.637-.276-1.135-.668-1.495-1.176-.36-.511-.558-1.117-.596-1.818h1.761c.034.421.17.771.41 1.051.242.277.55.483.925.62.379.132.794.198 1.245.198.496 0 .937-.077 1.323-.233.39-.159.697-.378.92-.659a1.56 1.56 0 0 0 .336-.994c0-.345-.098-.627-.295-.847a2.191 2.191 0 0 0-.79-.545 7.725 7.725 0 0 0-1.12-.381l-1.374-.375c-.932-.253-1.67-.627-2.216-1.119-.542-.492-.813-1.144-.813-1.954 0-.671.182-1.256.546-1.756.363-.5.856-.889 1.477-1.165.621-.28 1.322-.42 2.102-.42.788 0 1.483.138 2.085.414.606.277 1.084.657 1.432 1.142.349.481.53 1.035.546 1.66H41.94Zm10.297 0a1.66 1.66 0 0 0-.75-1.25c-.44-.3-.992-.45-1.659-.45-.477 0-.89.076-1.238.228-.349.148-.62.352-.813.614-.19.257-.284.55-.284.88 0 .277.064.515.193.716.133.201.305.369.517.506.216.132.447.244.693.335.247.087.483.159.71.216l1.137.295c.371.091.752.214 1.142.37.39.155.752.36 1.085.613.334.254.602.568.807.944.208.374.313.823.313 1.346 0 .659-.17 1.244-.512 1.756-.337.511-.827.915-1.471 1.21-.64.295-1.415.443-2.324.443-.872 0-1.625-.138-2.262-.415-.636-.276-1.134-.668-1.494-1.176-.36-.511-.559-1.117-.596-1.818h1.76c.035.421.171.771.41 1.051.242.277.551.483.926.62.379.132.794.198 1.244.198.497 0 .938-.077 1.324-.233.39-.159.697-.378.92-.659a1.56 1.56 0 0 0 .336-.994c0-.345-.099-.627-.295-.847a2.192 2.192 0 0 0-.79-.545 7.725 7.725 0 0 0-1.12-.381l-1.375-.375c-.931-.253-1.67-.627-2.215-1.119-.542-.492-.813-1.144-.813-1.954 0-.671.182-1.256.545-1.756.364-.5.857-.889 1.478-1.165.62-.28 1.322-.42 2.102-.42.788 0 1.483.138 2.085.414.606.277 1.083.657 1.432 1.142.349.481.53 1.035.546 1.66h-1.694ZM33.939 39.153c-1.007.463-2.11 1.066-4.32 2.278-.837.471-1.712.942-2.527 1.386-.056-.056-.115-.127-.171-.186-4.37-4.67-12.452-7.967-12.108-14.238.127-2.284.912-8.28 15.52-15.563 12.023-5.925 21.59-4.283 23.241-.642 2.375 5.19-5.127 14.849-17.543 16.25a9.355 9.355 0 0 1-7.854-1.985c-.657-.715-.756-.756-.999-.614-.4.21-.142.856 0 1.227a7.328 7.328 0 0 0 4.483 3.526 23.868 23.868 0 0 0 14.564-1.443c7.525-2.912 13.4-11.009 11.679-17.797-1.727-6.882-13.15-9.151-23.959-5.312a54.439 54.439 0 0 0-18.404 10.568c-5.954 5.569-6.897 10.41-6.511 12.436 1.386 7.197 11.306 11.88 15.284 15.35-.21.115-.385.21-.542.3-1.985.985-9.552 4.94-11.438 9.124-2.142 4.74.343 8.138 1.985 8.595a12.21 12.21 0 0 0 13.15-5.327 13.19 13.19 0 0 0 1.17-12.144c.471-.375.973-.709 1.5-.998 1.013-.6 1.978-1.19 2.835-1.646a21.932 21.932 0 0 1 9.37-2.07c6.796.8 8.138 5.039 7.88 6.825a4.516 4.516 0 0 1-2.156 3.055c-.471.3-.628.4-.587.613.057.314.285.3.685.243a5.307 5.307 0 0 0 3.698-4.726c.209-4.187-3.784-8.78-10.852-8.739a16.232 16.232 0 0 0-6.169 1.23c-.314.129-.619.269-.915.418l.011.006ZM23.837 55.566c-2.257 2.456-5.398 3.384-6.755 2.598-1.465-.837-.885-4.47 1.885-7.068a35.971 35.971 0 0 1 5.297-3.955c.329-.21.814-.486 1.398-.838l.157-.085.344-.21a9.752 9.752 0 0 1-2.326 9.558Z"/></svg>