<svg width="45" height="45" viewBox="0 0 45 45" fill="none" xmlns="http://www.w3.org/2000/svg">
<rect width="45" height="45" rx="22.5" fill="#DFB78C"/>
<g clip-path="url(#clip0_3569_384)">
<path d="M31.6117 22.2258C29.6459 18.5916 26.1984 16.3925 22.3834 16.3925C18.5684 16.3925 15.1151 18.5916 13.1668 22.2258L13.0034 22.5L13.1551 22.78C15.1209 26.4141 18.5684 28.6133 22.3834 28.6133C26.1984 28.6133 29.6518 26.4433 31.6117 22.78L31.7634 22.5L31.6117 22.2258ZM22.3834 27.4175C19.0993 27.4175 16.0834 25.5858 14.3334 22.5C16.0834 19.4141 19.0993 17.5825 22.3834 17.5825C25.6676 17.5825 28.6484 19.42 30.4276 22.5C28.6484 25.5858 25.6618 27.4175 22.3834 27.4175Z" fill="#42322b"/>
<path d="M22.5525 18.5159C21.7616 18.5216 20.9901 18.7617 20.3355 19.2056C19.6809 19.6496 19.1726 20.2776 18.8747 21.0103C18.5768 21.743 18.5028 22.5476 18.6619 23.3224C18.821 24.0972 19.2061 24.8074 19.7687 25.3634C20.3312 25.9195 21.0459 26.2963 21.8225 26.4464C22.5991 26.5965 23.4027 26.513 24.1319 26.2066C24.8611 25.9002 25.4831 25.3846 25.9195 24.7249C26.3558 24.0652 26.5868 23.291 26.5834 22.5C26.5811 21.9735 26.4749 21.4527 26.271 20.9673C26.067 20.4819 25.7693 20.0415 25.3948 19.6714C25.0204 19.3013 24.5766 19.0087 24.0888 18.8104C23.6011 18.6121 23.079 18.512 22.5525 18.5159ZM22.5525 25.3525C21.9939 25.3468 21.4493 25.1761 20.9873 24.8618C20.5254 24.5476 20.1665 24.1039 19.9559 23.5864C19.7453 23.0689 19.6923 22.5007 19.8035 21.9532C19.9148 21.4056 20.1853 20.9032 20.5812 20.5089C20.9771 20.1147 21.4806 19.8462 22.0286 19.7372C22.5766 19.6281 23.1446 19.6835 23.6612 19.8962C24.1778 20.1089 24.6201 20.4696 24.9324 20.9328C25.2447 21.3961 25.4132 21.9413 25.4167 22.5C25.4183 22.876 25.3452 23.2486 25.2016 23.5962C25.0581 23.9437 24.847 24.2593 24.5806 24.5247C24.3141 24.79 23.9977 24.9998 23.6496 25.1419C23.3014 25.284 22.9285 25.3556 22.5525 25.3525Z" fill="#42322b"/>
</g>
<defs>
<clipPath id="clip0_3569_384">
<rect width="21" height="21" fill="#42322b" transform="translate(12 12)"/>
</clipPath>
</defs>
</svg>


